<svg xmlns="http://www.w3.org/2000/svg" width="111.796" height="63.289" viewBox="0 0 111.796 63.289">
  <defs>
    <style>
      .cls-1 {
        fill: #bebebe;
      }
    </style>
  </defs>
  <g id="_1945505-200" data-name="1945505-200" transform="translate(-13.837 -104.54)">
    <path id="Path_24" data-name="Path 24" class="cls-1" d="M61.774,161.39c-5.363-5.662-7.351-11.49-5.136-18.325a16.4,16.4,0,0,1,16.014-11.49q23.969-.069,47.937,0c7.126.013,12.449,3.207,15.463,9.657,3.076,6.576,1.9,12.743-2.715,18.29-.369.446-.756.876-1.6,1.857,1.953,0,3.378-.04,4.81,0a16.777,16.777,0,0,1,16.089,16.674c.016,8.925-7.161,16.636-16.051,16.679q-39.9.192-79.8,0c-8.858-.048-16.033-7.88-15.947-16.773a16.793,16.793,0,0,1,15.888-16.567C58.164,161.342,59.617,161.39,61.774,161.39Zm21.78-.123c1.021.045,1.587.094,2.151.094,11.519,0,23.039.04,34.556,0,7.909-.035,13.668-5.611,13.66-13.067s-5.766-13.018-13.678-13.051c-11.421-.048-22.838-.016-34.259,0a22.685,22.685,0,0,0-2.3.243C91.215,144.847,91.21,151.618,83.554,161.267ZM98.7,191.157h2.44c11.223,0,22.446.024,33.668,0,8.177-.024,13.986-5.456,14.012-13.018s-5.8-13.075-13.927-13.093c-11.319-.032-22.641,0-33.96,0-.724,0-1.448.139-2.335.23C105.994,174.718,106.013,179.373,98.7,191.157ZM85.483,148.438a12.976,12.976,0,1,0-3.9,9.2,12.976,12.976,0,0,0,3.9-9.2Zm-14.9,29.719a12.973,12.973,0,1,0-3.854,9.239,12.976,12.976,0,0,0,3.854-9.239Zm29.794-.1a13.182,13.182,0,1,0,0,.011Zm-27.862,8.016c-1.275,1.659-2.442,3.174-3.741,4.871h7.506Zm.04-16.033c1.307-1.737,2.434-3.241,3.589-4.778H68.753Z" transform="translate(-27 -27)"/>
    <path id="Path_32" data-name="Path 32" class="cls-1" d="M124.818,168.609a9.275,9.275,0,0,1,9.235-9.259A9.323,9.323,0,1,1,133.924,178,9.272,9.272,0,0,1,124.818,168.609Zm14.846,0a5.566,5.566,0,0,0-5.825-5.43,5.508,5.508,0,1,0,.438,11.006A5.571,5.571,0,0,0,139.664,168.609Z" transform="translate(-88.54 -47.379)"/>
    <path id="Path_33" data-name="Path 33" class="cls-1" d="M69.056,280.279a9.3,9.3,0,0,1,9.352-9.459,9.33,9.33,0,0,1-.045,18.659A9.286,9.286,0,0,1,69.056,280.279Zm14.852-.053a5.569,5.569,0,0,0-5.387-5.577,5.509,5.509,0,1,0-.444,11.01,5.577,5.577,0,0,0,5.831-5.439Z" transform="translate(-47.678 -129.063)"/>
    <path id="Path_34" data-name="Path 34" class="cls-1" d="M180.556,280.276a9.3,9.3,0,0,1,9.352-9.457,9.329,9.329,0,0,1-.051,18.657A9.286,9.286,0,0,1,180.556,280.276Zm14.852-.107a5.569,5.569,0,0,0-5.443-5.523,5.51,5.51,0,1,0-.331,11.012,5.574,5.574,0,0,0,5.774-5.488Z" transform="translate(-129.384 -129.063)"/>
  </g>
</svg>
