<svg id="Vrstva_1" data-name="Vrstva 1" xmlns="http://www.w3.org/2000/svg" viewBox="0 0 63.7 80.46"><defs><style>.cls-1{fill:#bebebe;}</style></defs><g id="Unknown-2"><path id="Path_129" data-name="Path 129" class="cls-1" d="M12.71,76.27A9.49,9.49,0,0,1,10,77.44c-2.65.16-5.3,0-7.94.07-1.42,0-2-.63-2-2V57.65c0-2.16,1.63-1.85,2.46-1.91l1.54-2,1.51,2H8.42c3.68,0,3.68,0,4,3.92a75.74,75.74,0,0,1,7.33-2.87,12.32,12.32,0,0,1,5.3-.36c3.39.59,6.69,1.69,10.07,2.4,3.16.66,5.29,2.12,5.21,5.94l14-4.37c.7-.22,1.4-.47,2.11-.64,3.18-.76,6,.68,7,3.47a5.63,5.63,0,0,1-3.28,7.08c-6,2.71-12.24,5.1-18.09,8.11a16.57,16.57,0,0,1-13.49,1c-5.17-1.62-10.52-2.67-15.78-4Zm17-8.69-.49-.69c.61-.35,1.22-1,1.83-1,1.46,0,2.91.36,4.37.48,1.68.13,2.89-.8,2.83-2.36a3.57,3.57,0,0,0-1.8-2.77c-7.38-2-14.77-5.35-22.34-.29-1.27.86-1.92,1.44-1.83,2.95.13,2.57.18,5.14.12,7.71a1.89,1.89,0,0,0,1.5,2.22,1,1,0,0,0,.25,0c6,1.4,12,2.82,18,4.45a9,9,0,0,0,6.55-.57c6.87-3.17,13.82-6.14,20.72-9.25a3.58,3.58,0,0,0,2.19-4.56l-.05-.14a3.27,3.27,0,0,0-4-2.33l-.19,0c-6.12,1.81-12.27,3.56-18.24,5.8a11.06,11.06,0,0,1-6.12.79c-1.1-.19-2.18-.35-3.25-.52ZM2.09,57.66V75.39h8.2V57.65Z" transform="translate(0 0)"/><path id="Path_130" data-name="Path 130" class="cls-1" d="M34.21,20a17.92,17.92,0,1,1-18,17.79v-.25A17.91,17.91,0,0,1,34.21,20Zm-.06,1.81a15.84,15.84,0,1,0,11.3,4.67,15.85,15.85,0,0,0-11.3-4.67Z" transform="translate(0 0)"/><path id="Path_131" data-name="Path 131" class="cls-1" d="M42.61,10.29c-.35,1.4-.27,3.17-1,3.73-2.35,1.68-4.94,3.49-7.68,4-1.53.31-3.48-1.91-5.35-2.75-2.16-1-3.21-2.35-2.46-5.18A32.72,32.72,0,0,0,7.19,23.58a4.88,4.88,0,0,1-.79-.4,6.77,6.77,0,0,1-.69-.63A33.19,33.19,0,0,1,23.68,9c1.68-.52,2.57-1.18,2.2-3-.26-1.28.39-2,1.49-2.55C29.66,2.23,31.88,0,34.12,0s4.43,2.32,6.73,3.46a2.22,2.22,0,0,1,1.38,2.62c-.32,1.74.53,2.35,2.11,2.85a33.54,33.54,0,0,1,18,13.4l-1.38,1.18A32.41,32.41,0,0,0,42.61,10.29Zm-2-1.11c-.3-1.36-.14-3.14-.95-3.89-1.53-1.39-3.62-3-5.46-3s-4,1.68-5.7,3c-.62.47-.59,2-.58,3,0,1.5-.26,3.53.57,4.36,1.5,1.48,3.71,3,5.65,3s3.9-1.57,5.49-2.93c.77-.68.66-2.37,1-3.65Z" transform="translate(0 0)"/><path id="Path_136" data-name="Path 136" class="cls-1" d="M8.51,60.85c-1,.8-1.62,1.64-2.14,1.59s-1.22-.85-1.83-1.33c.5-.6,1-1.6,1.53-1.69S7.37,60.13,8.51,60.85Z" transform="translate(0 0)"/><path id="Path_137" data-name="Path 137" class="cls-1" d="M34.12,25.71A12.19,12.19,0,1,1,21.9,37.89,12.18,12.18,0,0,1,34.12,25.71Zm.13,2.2a10,10,0,1,0,10,10,10,10,0,0,0-10-10Z" transform="translate(0 0)"/><path id="Path_139" data-name="Path 139" class="cls-1" d="M30.63,39.57l1.12-.12a3.57,3.57,0,0,0,.4,1.35,2.17,2.17,0,0,0,.9.85,3.06,3.06,0,0,0,1.39.33,3,3,0,0,0,1.21-.25,1.72,1.72,0,0,0,.78-.68,1.82,1.82,0,0,0,.26-.94,1.61,1.61,0,0,0-.25-.9,1.85,1.85,0,0,0-.81-.65A15.15,15.15,0,0,0,34,38a6.87,6.87,0,0,1-1.74-.69,2.69,2.69,0,0,1-1-1A3.13,3.13,0,0,1,31,35a3.19,3.19,0,0,1,.4-1.57,2.48,2.48,0,0,1,1.13-1.09A3.66,3.66,0,0,1,33.3,32a4.28,4.28,0,0,1,.87-.09,3.85,3.85,0,0,1,1.77.39,2.73,2.73,0,0,1,1.18,1.15,3.89,3.89,0,0,1,.44,1.73l-1.14.11a2.46,2.46,0,0,0-.63-1.57,2.14,2.14,0,0,0-1.57-.53,2.2,2.2,0,0,0-1.56.48,1.56,1.56,0,0,0-.5,1.18,1.43,1.43,0,0,0,.35,1,4.27,4.27,0,0,0,1.81.79,9.5,9.5,0,0,1,2,.7,2.85,2.85,0,0,1,1.17,1.11,3.19,3.19,0,0,1,.4,1.57,3.53,3.53,0,0,1-.4,1.65,2.88,2.88,0,0,1-1.17,1.2,3.51,3.51,0,0,1-1.74.43,4.44,4.44,0,0,1-2.06-.43,3.16,3.16,0,0,1-1.3-1.31A4.3,4.3,0,0,1,30.63,39.57Zm2.87-9.28H35v2H33.47Z" transform="translate(0 0)"/><path id="Path_140" data-name="Path 140" class="cls-1" d="M33.5,42.8v1.79h1.62v-2S33.5,43.06,33.5,42.8Z" transform="translate(0 0)"/><path id="Path_141" data-name="Path 141" class="cls-1" d="M29.87,9.66l3,3L38.07,7.4,36.75,6.08,33,9.88,31.25,8.16Z" transform="translate(0 0)"/></g></svg>