<svg xmlns="http://www.w3.org/2000/svg" width="82" height="80.257" viewBox="0 0 82 80.257">
  <defs>
    <style>
      .cls-1 {
        fill: #bebebe;
      }
    </style>
  </defs>
  <g id="_3187707-200" data-name="3187707-200" transform="translate(-2.436 -3.438)">
    <path id="Path_39" data-name="Path 39" class="cls-1" d="M144.037,120.122c1-1.718,1.754-3.176,2.69-4.5a2.005,2.005,0,0,1,1.647-.78c6.492,2.006,12.954,4.11,19.79,6.308-1.08,1.881-1.948,3.581-3,5.163a2.312,2.312,0,0,0,.029,2.9c1,1.552,1.868,3.2,2.94,5.065l-3.8,1.537c0,3.393-.056,6.834.027,10.272a2.11,2.11,0,0,1-1.729,2.459c-5.751,1.781-11.455,3.712-17.2,5.5a4.8,4.8,0,0,1-2.665.029c-5.764-1.754-11.472-3.651-17.237-5.393a2.062,2.062,0,0,1-1.754-2.419c.1-2.653-.11-5.322.075-7.966.133-1.921-.43-2.982-2.388-3.232a6.113,6.113,0,0,1-1.431-.661,33.95,33.95,0,0,1,2.2-3.925c1.318-1.779,1.47-3.351.046-5.168a32.713,32.713,0,0,1-2.306-4.023c.832-.34,1.395-.611,1.983-.8,5.587-1.818,11.2-3.576,16.762-5.461,1.476-.5,2.377-.384,3.051,1.139A43.065,43.065,0,0,0,144.037,120.122Zm.79,17.238V152.8c.8-.232,1.414-.394,2.016-.588,5.049-1.627,10.1-3.239,15.129-4.934a1.809,1.809,0,0,0,1-1.316c.088-3.141.046-6.287.046-9.759l-10.662,3.355c-1.5.475-3.165,1.572-4.465,1.243C146.7,140.5,145.914,138.656,144.827,137.361Zm-1.6-.148c-2.761,3.952-2.761,3.952-6.917,2.615-.477-.154-.961-.3-1.433-.459l-9.682-3.141V147.05l18.022,5.783Zm-15.782-9.678-.06.513c3.376,1.1,6.863,1.946,10.1,3.359a15.3,15.3,0,0,0,13.173-.017,99.4,99.4,0,0,1,10.058-3.357c-5.441-2.244-10.86-4.023-16.291-5.764a2.212,2.212,0,0,0-1.253.129q-7.87,2.552-15.732,5.138Zm17.58,7c.961,1.629,1.649,2.97,2.519,4.185a1.774,1.774,0,0,0,1.551.532c5.674-1.789,11.321-3.66,17.2-5.585l-3.015-5.074Zm.311-13.367L163.326,127c1.011-1.76,1.921-3.351,2.919-5.08-4.727-1.537-9.223-3.015-13.715-4.471-4.926-1.595-4.928-1.589-7.157,3.166A3.267,3.267,0,0,0,145.338,121.169Zm-20.559,5.847,18.243-5.956c-.792-1.4-1.5-2.48-2.033-3.651-.576-1.255-1.3-1.364-2.557-.926-3.787,1.328-7.628,2.5-11.444,3.747-1.66.542-3.311,1.116-5.13,1.729C122.89,123.765,123.78,125.306,124.779,127.016Zm0,1.572-2.94,5.078c5.879,1.921,11.515,3.795,17.177,5.572a1.754,1.754,0,0,0,1.537-.544c.884-1.27,1.593-2.663,2.465-4.175Z" transform="translate(-101.443 -97.079)"/>
    <path id="Path_40" data-name="Path 40" class="cls-1" d="M78.256,118.4c-.728.056-1.456.158-2.185.158q-15.2.017-30.4,0c-6.21-.017-9.444-3.266-9.447-9.426q-.012-27.595,0-55.189c0-5.889,3.751-9.378,9.543-9.1,1.214.058,1.662.478,1.627,1.664-.054,1.856-.013,3.714-.013,5.833h2.69q25.979,0,51.958.019a10.513,10.513,0,0,1,2.077.421l-.156.8H47.514c-.044.993-.113,1.816-.113,2.64,0,14.795-.035,29.606.033,44.41,0,1.908-.421,2.64-2.5,2.594-4.367-.094-7.376,2.882-7.384,6.944s2.926,7.017,7.347,7.048c10.347.073,20.7.021,31.043.038a23.362,23.362,0,0,1,2.333.227ZM45.938,46.381c-5.051-.623-8.389,2.273-8.4,7.24q-.044,25.01,0,50.021a11.643,11.643,0,0,0,.246,1.564,9.137,9.137,0,0,1,8.152-3.368Z" transform="translate(-33.784 -40.578)"/>
    <path id="Path_41" data-name="Path 41" class="cls-1" d="M286.159,253.514v39.069H244.523l-.423-.5c13.749-13.046,27.645-25.938,41.448-38.927Zm-1.207,1.921-38.181,35.855H285.54l-2.127-3.111c1.66-.133,1.946-1.036,1.328-2.329l-2.723-.25-.075-.736,3.416-.769c-.678-.993-1.235-1.816-1.593-2.34l1.483-2.615-3.318-.669.129-.786,3.332-.307c-.7-1.153-1.207-1.985-1.6-2.627l1.383-2.529-3.247-.686c.036-.238.073-.475.111-.713l3.382-.469-1.641-2.515,1.391-2.534-3.241-.7.111-.7,3.378-.492-1.812-2.759c2.436-.978,1.128-2.992,1.333-5.22Z" transform="translate(-201.723 -208.888)"/>
    <path id="Path_42" data-name="Path 42" class="cls-1" d="M414.8,81.615c-1.837-4.25-5-6.944-4.815-11.576.325-8.454.086-16.935.1-25.4,0-3.332.7-3.993,4.077-4.006h1.508c3.286.015,4.054.769,4.058,4.035,0,8.54-.052,17.081.038,25.619a9.343,9.343,0,0,1-1.633,5.841C417.036,77.676,416.152,79.372,414.8,81.615Zm3.51-9.019V46.878h-2.632V72.6Zm-6.633-25.746v25.71H414.1V46.849Zm7.236-1.481c-.553-1.355-.815-3.051-1.368-3.151a14.51,14.51,0,0,0-5.437.133c-.407.085-.459,1.894-.7,3.018Zm-3.985,33.568,2.882-4.8h-5.8Z" transform="translate(-335.733 -37.192)"/>
    <path id="Path_43" data-name="Path 43" class="cls-1" d="M155.036,376.964c-1.408.961-21.884,1.13-23.906.323C131.943,376.267,152.365,375.917,155.036,376.964Z" transform="translate(-110.459 -308.392)"/>
    <path id="Path_44" data-name="Path 44" class="cls-1" d="M129.94,349.52h16.92c.056.175.111.348.169.521a4.415,4.415,0,0,1-1.328.6C139.264,351.192,130.868,350.723,129.94,349.52Z" transform="translate(-109.497 -286.733)"/>
    <path id="Path_49" data-name="Path 49" class="cls-1" d="M269.985,134.322Z" transform="translate(-208.102 -104.397)"/>
    <path id="Path_58" data-name="Path 58" class="cls-1" d="M317.93,345.125l20.488-19.515a10.581,10.581,0,0,1,.461,1.871c.023,5.459,0,10.917.027,16.376,0,1.084-.177,1.76-1.512,1.75-6.033-.048-12.066-.021-18.1-.038A7.162,7.162,0,0,1,317.93,345.125Zm19.6-16.889-16.651,15.872h16.651Z" transform="translate(-261.368 -267.417)"/>
  </g>
</svg>
