<svg xmlns="http://www.w3.org/2000/svg" width="27.585" height="27.636" viewBox="0 0 27.585 27.636">
  <defs>
    <style>
      .cls-1 {
        fill: none;
        stroke: #343434;
        stroke-linecap: round;
        stroke-linejoin: round;
        stroke-width: 2px;
      }
      
    </style>
  </defs>
  <path id="Icon_feather-phone" data-name="Icon feather-phone" class="cls-1" d="M28.75,22.192V26.05a2.573,2.573,0,0,1-2.8,2.573,25.456,25.456,0,0,1-11.1-3.949,25.083,25.083,0,0,1-7.718-7.718A25.456,25.456,0,0,1,3.178,5.8,2.573,2.573,0,0,1,5.738,3H9.6a2.573,2.573,0,0,1,2.573,2.212,16.516,16.516,0,0,0,.9,3.615,2.573,2.573,0,0,1-.579,2.714l-1.634,1.634a20.581,20.581,0,0,0,7.718,7.718l1.634-1.634a2.573,2.573,0,0,1,2.714-.579,16.516,16.516,0,0,0,3.615.9,2.573,2.573,0,0,1,2.212,2.611Z" transform="translate(-2.167 -2)"/>
</svg>
