<svg xmlns="http://www.w3.org/2000/svg" width="82.013" height="80.17" viewBox="0 0 82.013 80.17">
  <defs>
    <style>
      .cls-1 {
        fill: #bebebe;
      }
    </style>
  </defs>
  <g id="_3188979-200" data-name="3188979-200" transform="translate(-9.21 -14.384)">
    <path id="Path_61" data-name="Path 61" class="cls-1" d="M96.582,109.9l14.263,14.316,2.507-2.234,1.661,1.746-8.9,8.865-1.368-.851a6.169,6.169,0,0,0-2.783,4.633,7.8,7.8,0,0,1-1.829,3.723c-2.183,2.531-4.5,4.962-6.927,7.262-2,1.892-4.239,3.536-6.339,5.329-.344.293-.446.857-.757,1.2-1.99,2.128-3.819,4.481-6.118,6.2-.88.658-2.891-.015-4.323-.354-.666-.157-1.179-.967-1.8-1.513-.549.471-1,.923-1.513,1.3a4.243,4.243,0,0,1-6.341-1.621,9.453,9.453,0,0,0-1.877-1.93c-.049-.047-.138-.055-.189-.1-2.039-2.179-4.084-4.351-6.108-6.545-.267-.289-.378-.738-.658-1-3.252-2.928-6.583-5.772-9.744-8.795a5.065,5.065,0,0,1-1.324-3.055,5.993,5.993,0,0,0-2.743-4.714l-1.4.868c-2.943-2.947-5.811-5.817-8.919-8.925l1.863-1.581,2.041,1.875,14.061-14.1L33,91.892l1.61-1.725,24.978,24.916-.885,1.213a6.543,6.543,0,0,0,5.7,2.648c3.636-.2,6.963.4,9.648,3.485,2.677-3.14,6.088-3.683,9.788-3.49a6.538,6.538,0,0,0,5.546-2.616l-.933-1.286L113.466,90c.409.533.883,1.154,1.375,1.793Zm-39.491,8.689L45.828,129.815c.813,1.4,2.368,2.909,2.508,4.54.341,3.931,3.428,5.459,5.448,7.822,1.816-1.756,3.42-3.371,5.1-4.918a4.16,4.16,0,0,1,6.878,1.4c.218.475.448,1.179.832,1.305a4.8,4.8,0,0,1,3.426,3.486c.072.272.5.448.757.672,2.187,1.911,4.782,3.53,6.419,5.832,1.107,1.557,2.881,1.95,3.906,3.405.263.378,1.441.106,2.2.134-.079-.757.108-1.75-.3-2.227a8.846,8.846,0,0,0-2.537-1.441l2.59-2.319a11.25,11.25,0,0,0,2.158,1.973c.554.286,1.39.023,2.1,0-.03-.7.165-1.534-.142-2.081a11.642,11.642,0,0,0-1.892-2.081l1.606-2.011c.683.651,1.148,1.08,1.6,1.525.772.757,1.61,1.744,2.7.7,1.15-1.107.242-2.039-.6-2.879-2.474-2.459-4.935-4.941-7.414-7.4-4.285-4.256-3.3-4.2-7.578.034-.1.1-.2.2-.3.3-2.418,2.3-5.5,2.395-7.593.229-2.011-2.081-1.9-5.132.367-7.44,1.324-1.349,2.788-2.569,4.179-3.84a7.18,7.18,0,0,0-6.579-2.957C62.2,121.813,59.166,120.952,57.091,118.586Zm34.119-.242c-2.327,2.788-5.567,3.324-9.143,3.329a7.919,7.919,0,0,0-4.729,1.46,95.1,95.1,0,0,0-7.652,7.455,2.236,2.236,0,0,0,.019,3.43,2.27,2.27,0,0,0,3.432-.034c1-.917,1.922-1.909,2.892-2.855,2.395-2.338,4.4-2.334,6.81.051,3.744,3.7,7.465,7.414,11.371,11.3,1.655-1.835,4.061-3.424,4.786-5.579.91-2.705,1.474-5.4,3.7-7.081Zm-49.394,10.4,13.711-13.707-2.081-2.471-13.9,13.895Zm66.777-2.448L94.916,112.547,92.377,114.8l13.895,13.9ZM61.928,149.683a1.707,1.707,0,0,0,.664-.265c1.527-1.489,3.078-2.959,4.483-4.557a1.7,1.7,0,0,0-.269-1.663,2,2,0,0,0-1.865-.093,39.1,39.1,0,0,0-4.228,4.224A1.459,1.459,0,0,0,61.928,149.683Zm9.648-1.566c-.428-.475-.732-1.109-1.156-1.2a2.22,2.22,0,0,0-1.7.378,26.154,26.154,0,0,0-3.57,3.594c-.416.537-.2,1.559-.276,2.361.8-.115,1.8.028,2.365-.4A28.221,28.221,0,0,0,70.56,149.6a11.385,11.385,0,0,0,1.018-1.479Zm3.908,3.855c-.35-.378-.656-.946-1.1-1.088a1.837,1.837,0,0,0-1.523.31,37.579,37.579,0,0,0-3.9,3.935c-.359.433-.108,1.37-.134,2.081.711.009,1.674.32,2.081-.026a51.019,51.019,0,0,0,4.086-4.056,4.007,4.007,0,0,0,.5-1.156ZM57.9,145.6c.134-.028.412,0,.539-.125,1.612-1.593,3.237-3.174,4.748-4.858.189-.218-.066-1.214-.4-1.449-.42-.3-1.371-.454-1.672-.189a42,42,0,0,0-4.4,4.341A1.383,1.383,0,0,0,57.9,145.6Zm17.661,10.993a21.19,21.19,0,0,0,3.07,1.26c.223.055,1.025-.9.933-1.135a22.148,22.148,0,0,0-1.651-2.86Z" transform="translate(-23.79 -65.812)"/>
    <path id="Path_62" data-name="Path 62" class="cls-1" d="M157.9,56.436V50.45a4.506,4.506,0,0,1,2.406-4.211q6.3-3.617,12.54-7.323a4.5,4.5,0,0,1,5.015.044q6.144,3.666,12.353,7.219a4.618,4.618,0,0,1,2.524,4.362q-.025,5.878,0,11.757a4.644,4.644,0,0,1-2.507,4.374q-6.214,3.551-12.355,7.223a4.63,4.63,0,0,1-5.208-.044q-6.04-3.625-12.169-7.109a4.7,4.7,0,0,1-2.607-4.529C157.926,60.283,157.9,58.359,157.9,56.436ZM176.629,71.49c4.351-2.542,8.291-4.818,12.2-7.143.448-.265,1.039-.8,1.046-1.216.081-3.857.047-7.716.047-11.918-4.389,2.569-8.445,4.9-12.457,7.311a1.85,1.85,0,0,0-.793,1.313c-.064,3.746-.03,7.493-.03,11.653ZM189.075,48.6c-4.393-2.558-8.373-4.918-12.406-7.177a2.7,2.7,0,0,0-2.153-.3c-4.262,2.365-8.448,4.864-12.7,7.345,1.438,1.668,2.775,1.75,4.374.568a30.826,30.826,0,0,1,4.026-2.418,2.238,2.238,0,0,1,1.72-.25c2.234,1.2,4.389,2.539,6.861,4l-6.689,4.086c-.015.218-.028.435-.044.653,1.341.354,3.027,1.407,3.963.946,4.372-2.206,8.53-4.82,13.053-7.453ZM171.363,63.664a37.387,37.387,0,0,0-4.311-2.471c-3.042-1.216-4.427-3.227-3.765-6.538.393-1.967-.774-2.745-2.648-3.159a44.345,44.345,0,0,1-.055,6.536c-.656,4.271.933,6.873,4.894,8.569,2.889,1.237,5.507,3.106,8.522,4.856,0-3.774-.117-7.117.045-10.448.095-1.954-.679-2.872-2.679-3.254Zm-4.445-12.228c2.331,1.822,3.935,1.409,6.243-1.2-2.592-2.469-3.912.745-6.237,1.2Zm1.457,7.122c.7-2.27-.106-3.5-2.3-3.961-.488,2.035-.1,3.5,2.308,3.974Z" transform="translate(-125.056 -23.79)"/>
  </g>
</svg>
