<svg xmlns="http://www.w3.org/2000/svg" width="59.147" height="77.064" viewBox="0 0 59.147 77.064">
  <defs>
    <style>
      .cls-1 {
        fill: #bebebe;
      }
    </style>
  </defs>
  <g id="images" transform="translate(-49.804 -30.761)">
    <path id="Path_117" data-name="Path 117" class="cls-1" d="M229.037,226.313c-2.4.571-4.445,1.062-6.5,1.543-.382.09-.873,0-1.147.217-5.191,3.973-9.943.859-14.785-.878-.217-.076-.439-.137-.944-.288a33.289,33.289,0,0,1-.878,3.3c-.4,1.085-.722,2.459-1.548,3.072-1.921,1.416-2.072,3.223-2.043,5.342.09,6.366.057,12.742.038,19.108,0,3.822-2.161,6.248-5.5,6.276-3.483.033-5.814-2.416-5.828-6.272-.028-7.39.047-14.785-.028-22.18a7.3,7.3,0,0,0-.986-3.478,8.73,8.73,0,0,1-.793-6.607q1.557-7.371,3.133-14.733A7.942,7.942,0,0,1,199,204.133c4.247-.217,8.046,2.209,9.117,5.979.623,2.18.868,4.464,1.444,6.659.76,2.907,2.831,3.671,5.72,2.747,1.746-.557,3.709-.42,5.573-.613,3.563-.368,4.077-.812,4.837-4.29.283-1.3.4-2.643.717-3.936a8.881,8.881,0,0,1,8.966-6.578c4.5.179,7.305,2.6,8.192,6.965.986,4.846,2.029,9.679,3.1,14.506a8.4,8.4,0,0,1-1.123,6.975,5.342,5.342,0,0,0-.68,2.86c-.047,7.154,0,14.313,0,21.467a16.769,16.769,0,0,1-.028,1.888,5.625,5.625,0,0,1-5.88,5.248,5.4,5.4,0,0,1-5.4-5.663c-.066-7.079.028-14.157-.1-21.236,0-1.062-.859-2.128-1.392-3.152-.68-1.3-1.567-2.506-2.109-3.855A24.089,24.089,0,0,1,229.037,226.313ZM203.786,219.9c3.676,5.436,8.636,6.522,14.157,6.361a3.3,3.3,0,0,0-1.458-1.888,14.723,14.723,0,0,0-2.931-.831c-5.328-1.274-7.027-3.166-7.791-8.626a24.263,24.263,0,0,0-.741-3.922,5.538,5.538,0,0,0-5.663-3.7c-2.473.127-4.219,1.345-4.719,3.52-1.166,5.191-2.36,10.41-3.3,15.658-.236,1.321.411,2.831.764,4.2.274,1.076.977,2.091,1.048,3.162.16,2.426.052,4.865.052,7.305v16.517c0,1.59.434,2.888,2.246,2.964,1.954.08,2.529-1.236,2.553-2.94,0-.783.047-1.571.047-2.36.033-6.833.038-13.685.123-20.5,0-.764.26-1.982.755-2.209,2.284-1.038,2.8-2.945,3.162-5.125s.986-4.436,1.7-7.588Zm27.281.227c.623,2.982,1.033,5.691,1.8,8.3a6.8,6.8,0,0,0,2.223,3.624,3.11,3.11,0,0,1,1.562,3.025c0,7.39.038,14.775.038,22.18,0,1.812.269,3.483,2.534,3.431,2.072-.052,2.36-1.6,2.36-3.351-.033-7.551,0-15.1,0-22.652a5.768,5.768,0,0,1,1.284-4.318,4.627,4.627,0,0,0,.656-3.487c-.986-5.328-2.171-10.618-3.3-15.917a4.418,4.418,0,0,0-4.153-3.582c-3.893-.524-6.191,1.685-7.017,6.663-1.038,6.267-2.133,7.329-8.372,8.117-.123,0-.231.16-.345.245,1.543,3.53,3.431,3.176,10.736-2.275Z" transform="translate(-138 -156.186)"/>
    <path id="Path_118" data-name="Path 118" class="cls-1" d="M211.069,184.485a8.16,8.16,0,0,1-8.461-8.192,8.362,8.362,0,1,1,8.461,8.192Zm4.988-8.249a5,5,0,0,0-5.191-5.153,5.191,5.191,0,0,0-5.1,5.092,5.407,5.407,0,0,0,5.285,5.224A5.139,5.139,0,0,0,216.057,176.236Z" transform="translate(-145.817 -137)"/>
    <path id="Path_119" data-name="Path 119" class="cls-1" d="M276.579,176.209a8.067,8.067,0,0,1-8.225,8.391,8.324,8.324,0,1,1,8.225-8.391Zm-13.445.109a5.191,5.191,0,0,0,5.271,5.149,5.262,5.262,0,0,0,5.04-5.191,5.158,5.158,0,0,0-5.314-5.092,5.026,5.026,0,0,0-5,5.134Z" transform="translate(-176.089 -137.1)"/>
  </g>
</svg>
