<svg xmlns="http://www.w3.org/2000/svg" width="85.79" height="79.783" viewBox="0 0 85.79 79.783">
  <defs>
    <style>
      .cls-1 {
        fill: #bebebe;
      }
    </style>
  </defs>
  <g id="_6919261" data-name="6919261" transform="translate(0 -0.044)">
    <path id="Path_107" data-name="Path 107" class="cls-1" d="M109.033,117.173h17.776c1.868,0,2.408.544,2.414,2.414,0,3.149.054,6.3-.035,9.446a3.8,3.8,0,0,1-.818,2.227q-12.107,13.957-24.289,27.84a2.555,2.555,0,0,1-2.076.955q-28.181-.025-56.36-.017c-1.532,0-2.167-.606-2.178-2.122-.021-3.322,0-6.643-.019-9.964a2.914,2.914,0,0,1,1-2.176q8.131-8.1,16.238-16.207a11.142,11.142,0,0,1,1.125-.818c-.978-.482-1.638-.812-2.3-1.131a3.637,3.637,0,0,1-2.242-4.469c.224-1.082.554-2.144.725-3.234a1.945,1.945,0,0,0-.311-1.293c-.673-.961-1.468-1.837-2.176-2.776a3.552,3.552,0,0,1-.017-4.509c.641-.859,1.3-1.713,2.016-2.508a1.735,1.735,0,0,0,.455-1.868,31.411,31.411,0,0,1-.735-3.226,3.468,3.468,0,0,1,1.9-3.98c1.038-.544,2.144-.969,3.155-1.559a2.284,2.284,0,0,0,.94-1.179c.318-.982.465-2.016.7-3.027a3.6,3.6,0,0,1,3.888-3.131,7.9,7.9,0,0,1,1.553.017,3.534,3.534,0,0,0,4.063-2.012,9.582,9.582,0,0,1,.891-1.146A3.582,3.582,0,0,1,79.1,86.586c1,.467,1.97,1.011,2.994,1.424a1.926,1.926,0,0,0,1.312.012c1.055-.415,2.053-.988,3.087-1.466a3.56,3.56,0,0,1,4.636,1.065c.706.851,1.416,1.7,2.055,2.607a1.432,1.432,0,0,0,1.389.652c1.14-.048,2.284-.031,3.425-.012a3.465,3.465,0,0,1,3.5,2.7c.313,1.167.5,2.371.847,3.529a2.1,2.1,0,0,0,.884,1.1c.953.552,1.989.963,2.975,1.453a3.646,3.646,0,0,1,2.076,4.384c-.247,1.115-.552,2.217-.747,3.338a1.607,1.607,0,0,0,.251,1.1c.641.9,1.374,1.733,2.055,2.607a3.627,3.627,0,0,1-.035,5.08C109.579,116.417,109.39,116.7,109.033,117.173Zm-59.4,28.563c3.575,0,6.851-.042,10.143.025a1.881,1.881,0,0,0,2-1.179A26.508,26.508,0,0,1,72.76,133.589a55.345,55.345,0,0,0,12.248-8.653c1.345-1.26,2.589-2.626,3.878-3.944a6.3,6.3,0,0,0-1.983-.247c-1.3-.023-2.124-.7-2.149-1.76-.027-1.094.808-1.8,2.18-1.81,2.213,0,4.43-.054,6.643.023.955.031,1.316-.291,1.484-1.208a12.6,12.6,0,0,0-8.449-14.309,12.468,12.468,0,0,0-15.231,6.78,12.234,12.234,0,0,0,0,10.266l.546-.241a1.773,1.773,0,0,1,2.045,2.829c-.208.235-.432.448-.652.668q-11.335,11.343-22.671,22.684C50.365,144.951,50.1,145.256,49.63,145.736Zm19.1-24.145c-3.261-6.94-2.83-13.388,2.373-18.978,4.617-4.964,10.537-6.518,16.882-4.152,8.511,3.164,11.677,9.79,10.618,18.717,1.835,0,3.629.015,5.422-.017a1.061,1.061,0,0,0,.677-.376c.862-1.038,1.692-2.1,2.57-3.195l-2.612-3.263a3.637,3.637,0,0,1-.754-3.3c.328-1.337.623-2.682.932-4.073-1.266-.6-2.477-1.185-3.691-1.758a3.679,3.679,0,0,1-2.182-2.717c-.222-1.082-.54-2.147-.725-3.234-.108-.644-.359-.872-1.011-.83-1.071.052-2.147-.012-3.218.029a3.769,3.769,0,0,1-3.309-1.6c-.673-.878-1.335-1.769-2.076-2.589a1.117,1.117,0,0,0-.99-.228c-1.023.415-2.01.92-2.993,1.424a3.9,3.9,0,0,1-3.774-.015c-.951-.494-1.937-.915-2.879-1.426a.741.741,0,0,0-1.125.249c-.66.889-1.38,1.733-2.053,2.612a3.737,3.737,0,0,1-3.222,1.561c-1.345-.031-2.7,0-4.088,0-.3,1.3-.623,2.528-.864,3.776a3.9,3.9,0,0,1-2.375,3.05c-.915.415-1.8.891-2.722,1.273-.654.272-.895.61-.668,1.337.289.92.438,1.883.689,2.817a4.065,4.065,0,0,1-.915,3.957c-.83.955-1.59,1.968-2.385,2.958.7.87,1.268,1.706,1.964,2.425a4.733,4.733,0,0,1,1.2,5.142c-.311.976-.87,2.259-.494,2.96.415.77,1.773,1.038,2.722,1.52.029.015.062.05.089.048.328-.046.764.019.963-.166C66.072,124.241,67.384,122.915,68.729,121.59ZM47.108,156.427h53.485v-7.035H47.108Zm53.933-35.55a1.7,1.7,0,0,0-.336-.116c-1.59,0-3.191.1-4.775-.042a3.942,3.942,0,0,0-3.913,1.846,50.882,50.882,0,0,1-17,13.836,25.231,25.231,0,0,0-9.2,8.32c-.187.276-.338.573-.6,1.011,2.531,0,4.9.019,7.276-.025.259,0,.585-.309.76-.561.872-1.246,1.684-2.533,2.549-3.782a1.789,1.789,0,0,1,2.589-.648,1.839,1.839,0,0,1,.353,2.657c-.469.745-.959,1.478-1.511,2.321h5.125C88.658,137.336,94.817,129.147,101.041,120.876Zm-14.125,24.8c.253.031.378.06.5.06h13.6c.92,0,2.659-1.972,2.578-2.937-.658-7.918,1.943-14.826,6.583-21.092.2-.264.367-.546.641-.955-1.468,0-2.776.048-4.077-.019a1.893,1.893,0,0,0-1.8.884q-8.669,11.59-17.392,23.145C87.352,145.021,87.171,145.3,86.916,145.671Zm17.288,7.768c.365-.378.561-.565.737-.766,6.487-7.415,12.9-14.893,19.5-22.213,1.885-2.09.847-4.27,1.086-6.435-7.1,7.926-14.062,15.885-21.013,23.855a1.4,1.4,0,0,0-.293.83c-.037,1.5-.015,2.981-.015,4.727Zm3.114-14.2,16.17-18.482c-2.618,0-4.932-.027-7.247.025a1.6,1.6,0,0,0-1.1.583,88.043,88.043,0,0,0-5.038,7.32,20.759,20.759,0,0,0-2.788,10.548Z" transform="translate(-43.45 -80.23)"/>
    <path id="Path_108" data-name="Path 108" class="cls-1" d="M374.167,177.141a1.783,1.783,0,1,1-1.806-1.771A1.831,1.831,0,0,1,374.167,177.141Z" transform="translate(-302.686 -150.955)"/>
    <path id="Path_109" data-name="Path 109" class="cls-1" d="M348.449,108.35a1.837,1.837,0,0,1-1.738,1.837,1.775,1.775,0,0,1-1.81-1.74,1.721,1.721,0,0,1,1.715-1.812,1.767,1.767,0,0,1,1.833,1.715Z" transform="translate(-282.319 -96.489)"/>
    <path id="Path_110" data-name="Path 110" class="cls-1" d="M370.88,82.16a1.771,1.771,0,0,1,1.785,1.767,1.717,1.717,0,0,1-1.748,1.775,1.74,1.74,0,0,1-1.8-1.738A1.812,1.812,0,0,1,370.88,82.16Z" transform="translate(-301.513 -77.095)"/>
    <path id="Path_111" data-name="Path 111" class="cls-1" d="M408.118,171.627a1.8,1.8,0,0,1-1.76,1.8,1.783,1.783,0,0,1-1.787-1.762,1.76,1.76,0,0,1,1.76-1.775,1.742,1.742,0,0,1,1.787,1.74Z" transform="translate(-329.603 -146.611)"/>
    <path id="Path_112" data-name="Path 112" class="cls-1" d="M404.884,118.8a1.725,1.725,0,0,1-1.785,1.738,1.783,1.783,0,0,1-1.758-1.789,1.821,1.821,0,0,1,1.814-1.75,1.74,1.74,0,0,1,1.729,1.8Z" transform="translate(-327.044 -104.703)"/>
    <path id="Path_113" data-name="Path 113" class="cls-1" d="M393.457,59.58a1.794,1.794,0,0,1,1.922-1.6,1.771,1.771,0,1,1-.3,3.529,1.789,1.789,0,0,1-1.619-1.929Z" transform="translate(-320.792 -57.93)"/>
    <path id="Path_114" data-name="Path 114" class="cls-1" d="M374.347,134.127a1.794,1.794,0,0,1-1.742,1.81,1.775,1.775,0,0,1-.075-3.548A1.806,1.806,0,0,1,374.347,134.127Z" transform="translate(-302.876 -116.898)"/>
    <path id="Path_115" data-name="Path 115" class="cls-1" d="M211.593,238.091a1.771,1.771,0,1,1-1.727-1.668A1.771,1.771,0,0,1,211.593,238.091Z" transform="translate(-173.883 -199.334)"/>
  </g>
</svg>
