<svg xmlns="http://www.w3.org/2000/svg" width="76.329" height="58.711" viewBox="0 0 76.329 58.711">
  <defs>
    <style>
      .cls-1 {
        fill: #bebebe;
      }
    </style>
  </defs>
  <g id="Unknown-1" transform="translate(-0.044 0.011)">
    <path id="Path_124" data-name="Path 124" class="cls-1" d="M208.208,247.5h16.915v11.488c-2.833-.9-5.3-1.722-7.791-2.49-3.772-1.156-7.6-3.5-10.437,1.916-.634,1.2-3.414,1.752-5.219,1.782-10.131.157-20.278.261-30.409,0-13.017-.335-21.485-9.349-22.261-22.283-1.864-30.968,8.327-37.79,36.642-36.008,9.513.6,15.976,5.122,20.084,13.65,1.059,2.2,4.331,3.616,4.794,5.778.947,4.436,2.475,10.236.492,13.471C208.029,239.623,206.828,238.885,208.208,247.5Zm-3.4-9.624c0-4.16.1-8.32,0-12.48-.313-11.414-6.59-18.869-17.333-20.71-17.706-3.034-30.26,1.491-34.442,12.413a11.585,11.585,0,0,0-.746,2.982c-2,22.41-2.154,39.892,30.409,37.723.746-.052,1.558,0,2.341,0,19.823.022,19.823.022,19.771-19.927Z" transform="translate(-148.75 -201.65)"/>
    <path id="Path_127" data-name="Path 127" class="cls-1" d="M199.311,235.148a16.9,16.9,0,1,1-17.445-16.692C191.752,218.113,199.207,225.277,199.311,235.148Zm-2.408,0c-.119-7.6-7.149-14.44-14.679-14.3s-14.448,7.224-14.321,14.731,7.224,14.433,14.746,14.291A14.974,14.974,0,0,0,196.9,235.14Z" transform="translate(-153.004 -205.927)"/>
  </g>
</svg>
